<?xml version="1.0" encoding="UTF-8" standalone="no"?><!-- Created with Inkscape (http://www.inkscape.org/) --><svg xmlns:svg="http://www.w3.org/2000/svg" xmlns="http://www.w3.org/2000/svg" width="210mm" height="297mm" viewBox="0 0 210 297" version="1.1" id="svg845"><defs id="defs839" /><g id="layer1"><path style="fill:#000000;fill-opacity:0.99047618;stroke-width:0.26499999;stroke-miterlimit:4;stroke-dasharray:none" id="path1402" d="m 64.680624,62.169623 c -0.885698,4.67255 -0.795692,9.47202 -0.803982,14.207403 0.09735,14.715995 0.286155,29.438034 0.846723,44.145144 0.398975,13.33777 0.87128,26.66255 2.094277,39.9527 1.061331,13.05026 3.625694,25.89747 6.109925,38.73283 1.016429,4.10384 1.923283,8.23588 2.995232,12.32595 0.119012,0.43364 0.06504,0.24706 0.158228,0.5608 0,0 -9.969582,5.29832 -9.969582,5.29832 v 0 c -0.02035,-0.33874 -0.0058,-0.13737 -0.05034,-0.60359 -0.495588,-4.31054 -1.297403,-8.57817 -2.0525,-12.8486 -1.854181,-12.98816 -4.43484,-25.86197 -5.946224,-38.89985 -0.194633,-1.99162 -0.428456,-3.97979 -0.583899,-5.97484 -0.889486,-11.41632 -0.617566,-22.88002 -0.977291,-34.31537 -0.39933,-10.79681 -0.62964,-21.60874 -1.228458,-32.397016 -0.116004,-2.089888 -0.299839,-4.175652 -0.415001,-6.265587 -0.09159,-1.662142 -0.136809,-3.326514 -0.205211,-4.989769 -0.180224,-4.675561 -0.427453,-9.356524 -0.07352,-14.03019 0,0 10.101625,-4.898335 10.101625,-4.898335 z" /><path style="fill:#000000;fill-opacity:0.99047618;stroke-width:0.26499999;stroke-miterlimit:4;stroke-dasharray:none" id="path1404" d="m 19.829882,85.465099 c 8.233269,-2.352792 16.551745,-4.389464 24.880794,-6.371746 9.409409,-2.402562 19.032453,-3.551997 28.708167,-4.066895 1.494801,-0.05281 2.98917,-0.11966 4.484399,-0.158438 4.101682,-0.106375 5.629003,-0.164271 9.825884,0.21253 5.675834,0.509584 11.289564,1.534607 16.884534,2.57788 5.41407,1.228278 11.14294,2.063223 16.13881,4.650033 2.50455,1.296832 2.86285,1.815643 5.00138,3.64031 4.78385,4.870886 7.82709,11.073209 10.09247,17.437687 1.43272,4.27717 2.09891,8.63839 1.55592,13.13474 -0.34628,2.8674 -0.73312,3.91901 -1.47638,6.68567 -1.20481,3.62015 -2.86267,7.17965 -5.28833,10.15835 -1.2023,1.4764 -1.71761,1.81443 -3.12582,3.0223 -4.94928,3.20939 -9.94606,6.966 -15.82197,8.10382 -1.36835,0.26497 -2.49439,0.33692 -3.88486,0.46943 -5.87281,0.25874 -11.75527,0.20655 -17.632533,0.20324 -5.621398,-0.20059 -11.240352,-0.44239 -16.863954,-0.5757 -1.827308,-0.22489 -3.626493,0.25555 -5.439055,0.33012 -0.473247,0.0195 -1.861217,-0.0558 -2.346034,-0.0786 -1.001758,0.18923 -2.223635,-0.0515 -3.147571,0.48072 -0.170577,0.0983 -0.623602,0.47644 -0.451845,0.38026 3.064727,-1.71618 6.092952,-3.49673 9.139428,-5.2451 -0.725876,0.76856 -1.176713,2.17713 -0.80596,3.21998 0.127106,0.35752 0.340688,0.67812 0.511029,1.01718 4.144407,4.91314 10.168035,7.80862 15.741026,10.78567 7.294579,3.58213 14.756429,6.81764 22.319359,9.78771 8.55763,3.61089 17.17044,7.07236 25.81267,10.47376 5.87882,2.10862 11.5672,4.70415 17.41082,6.89856 0,0 -8.89616,5.95065 -8.89616,5.95065 v 0 c -5.60949,-2.48484 -11.18634,-5.05025 -16.93686,-7.20174 -8.67406,-3.44195 -17.3652,-6.83843 -26.01609,-10.34031 -7.55136,-3.04422 -15.0341,-6.26889 -22.312679,-9.92473 -5.084842,-2.65122 -11.118853,-5.60077 -15.369246,-9.50391 -0.477263,-0.43827 -0.875062,-0.95588 -1.312593,-1.43382 -1.34135,-2.28454 -1.217438,-3.02868 -0.505581,-5.46871 6.379699,-3.85762 7.900746,-6.55504 13.791932,-6.34955 2.540431,0.0464 5.067864,-0.39659 7.608938,-0.11922 5.531543,0.27779 11.061679,0.61752 16.600449,0.71717 5.93454,-0.01 11.88572,0.0514 17.80202,-0.47771 1.87236,-0.24842 3.68153,-0.51717 5.4741,-1.1388 0.52681,-0.18269 2.02404,-0.91655 1.5565,-0.61274 -3.2323,2.10032 -11.42881,6.71617 -6.07462,3.6892 1.38794,-1.04953 2.12878,-1.51593 3.33069,-2.82591 2.57696,-2.80865 4.30522,-6.34309 5.63362,-9.87422 0.31128,-1.0642 0.67372,-2.11475 0.93385,-3.19259 1.30646,-5.41338 1.07508,-10.77205 -0.72458,-16.04999 -2.19217,-6.21329 -5.06569,-12.2656 -9.86336,-16.918721 -0.77022,-0.630738 -1.49821,-1.316884 -2.31065,-1.892213 -5.25218,-3.719316 -11.89616,-4.893005 -18.01892,-6.303279 -5.593051,-1.044845 -11.185583,-2.038602 -16.874292,-2.410214 -3.735887,-0.244044 -6.247492,-0.150503 -9.932323,-0.03694 -1.487154,0.04583 -2.973641,0.111271 -4.460462,0.166908 -9.567995,0.580056 -19.094659,1.687015 -28.404807,4.063515 -8.654057,2.067701 -17.278085,4.285806 -25.734402,7.067847 0,0 8.793148,-6.753442 8.793148,-6.753442 z" /><path style="fill:#000000;fill-opacity:0.99047618;stroke-width:0.26499999;stroke-miterlimit:4;stroke-dasharray:none" id="path1406" d="m 93.448887,88.528243 c -0.06798,2.077117 -0.08112,4.155755 -0.09764,6.233949 -0.05155,3.476799 -0.03455,6.950938 0.09718,10.425568 -0.02793,5.54175 1.341615,10.91485 2.444173,16.30025 0.480261,1.78457 0.786887,3.61983 1.280427,5.40091 0.217898,0.78636 0.536776,1.53314 0.740236,2.32498 0.194164,0.4728 0.08892,1.00962 0.238995,1.48449 0,0 -10.252646,4.82016 -10.252646,4.82016 v 0 c 0.190121,0.16444 0.190997,-0.92236 0.139192,-1.02383 -0.117668,-0.83481 -0.353507,-1.60515 -0.532247,-2.42885 -0.398097,-1.8346 -0.634936,-3.70624 -1.055883,-5.53676 -0.997122,-5.44026 -2.437037,-10.83583 -2.575743,-16.39807 -0.243509,-3.45649 -0.405145,-6.90328 -0.333316,-10.370589 -0.01638,-2.045028 -0.02893,-4.090545 -0.09764,-6.134446 0,0 10.004922,-5.097762 10.004922,-5.097762 z" /><path style="fill:#ff0000;fill-opacity:0.99047618;stroke-width:0.26499999;stroke-miterlimit:4;stroke-dasharray:none" id="path1408" d="m 74.510831,91.666377 c 4.852585,0.599151 9.759875,0.635 14.642562,0.730988 6.160344,0.07732 12.318367,0.141761 18.468257,-0.255352 3.0443,-0.281998 6.09737,-0.442296 9.15094,-0.579094 0,0 -8.94292,6.545437 -8.94292,6.545437 v 0 c -2.96614,0.0739 -5.92623,0.25516 -8.888931,0.41126 -6.075767,0.2508 -12.152837,0.0247 -18.231721,-0.005 -5.13538,-0.0426 -10.289887,0.0238 -15.409177,-0.42997 0,0 9.21099,-6.418272 9.21099,-6.418272 z" /></g></svg>
